HIERARCHY
ROOT Hips
{
	OFFSET 0.000000 0.000000 0.000000
	CHANNELS 6 Xposition Yposition Zposition Xrotation Yrotation Zrotation
	JOINT Spine
	{
		OFFSET 0.000000 10.431076 -0.183291
		CHANNELS 3 Xrotation Yrotation Zrotation
		JOINT Spine1
		{
			OFFSET 0.000000 12.169579 -0.213840
			CHANNELS 3 Xrotation Yrotation Zrotation
			JOINT Spine2
			{
				OFFSET 0.000000 13.908089 -0.244389
				CHANNELS 3 Xrotation Yrotation Zrotation
				JOINT Neck
				{
					OFFSET 0.000000 15.646614 -0.274937
					CHANNELS 3 Xrotation Yrotation Zrotation
					JOINT Head
					{
						OFFSET 0.000000 9.992981 1.511905
						CHANNELS 3 Xrotation Yrotation Zrotation
						End Site
						{
							OFFSET 0.000000 23.944481 0.000000
						}
					}
				}
				JOINT LeftShoulder
				{
					OFFSET 5.623900 13.422947 -0.295229
					CHANNELS 3 Xrotation Yrotation Zrotation
					JOINT LeftArm
					{
						OFFSET 11.299500 -4.486679 -0.040584
						CHANNELS 3 Xrotation Yrotation Zrotation
						JOINT LeftForeArm
						{
							OFFSET 18.812038 -19.995176 1.759347
							CHANNELS 3 Xrotation Yrotation Zrotation
							JOINT LeftHand
							{
								OFFSET 14.068768 -14.666154 17.701773
								CHANNELS 3 Xrotation Yrotation Zrotation
								JOINT LeftHandIndex1
								{
									OFFSET 4.900085 -8.554094 9.848974
									CHANNELS 3 Xrotation Yrotation Zrotation
									JOINT LeftHandIndex2
									{
										OFFSET 0.116100 -0.767465 0.848562
										CHANNELS 3 Xrotation Yrotation Zrotation
										JOINT LeftHandIndex3
										{
											OFFSET 0.283611 -1.365776 1.144894
											CHANNELS 3 Xrotation Yrotation Zrotation
											End Site
											{
												OFFSET 0.163895 -1.083391 1.197872
											}
										}
									}
								}
							}
						}
					}
				}
				JOINT RightShoulder
				{
					OFFSET -5.623900 13.422947 -0.254645
					CHANNELS 3 Xrotation Yrotation Zrotation
					JOINT RightArm
					{
						OFFSET -11.299497 -4.486683 0.040584
						CHANNELS 3 Xrotation Yrotation Zrotation
						JOINT RightForeArm
						{
							OFFSET -18.812038 -19.995190 1.637604
							CHANNELS 3 Xrotation Yrotation Zrotation
							JOINT RightHand
							{
								OFFSET -14.068760 -14.666158 17.713804
								CHANNELS 3 Xrotation Yrotation Zrotation
								JOINT RightHandIndex1
								{
									OFFSET -5.135284 -8.648746 9.496262
									CHANNELS 3 Xrotation Yrotation Zrotation
									JOINT RightHandIndex2
									{
										OFFSET 0.086082 -0.592590 1.038300
										CHANNELS 3 Xrotation Yrotation Zrotation
										JOINT RightHandIndex3
										{
											OFFSET -0.240086 -1.427147 1.157845
											CHANNELS 3 Xrotation Yrotation Zrotation
											End Site
											{
												OFFSET 0.114975 -0.791478 1.386780
											}
										}
									}
								}
							}
						}
					}
				}
			}
		}
	}
	JOINT LeftUpLeg
	{
		OFFSET 10.464871 -5.799515 0.414702
		CHANNELS 3 Xrotation Yrotation Zrotation
		JOINT LeftLeg
		{
			OFFSET 5.458568 -47.016251 -0.902471
			CHANNELS 3 Xrotation Yrotation Zrotation
			JOINT LeftFoot
			{
				OFFSET 3.872663 -40.996902 -0.210208
				CHANNELS 3 Xrotation Yrotation Zrotation
				JOINT LeftToeBase
				{
					OFFSET -1.923424 -8.338470 13.147891
					CHANNELS 3 Xrotation Yrotation Zrotation
					End Site
					{
						OFFSET -0.915655 -0.157990 6.151315
					}
				}
			}
		}
	}
	JOINT RightUpLeg
	{
		OFFSET -10.464871 -5.799515 0.587245
		CHANNELS 3 Xrotation Yrotation Zrotation
		JOINT RightLeg
		{
			OFFSET -5.458575 -47.016251 -1.014727
			CHANNELS 3 Xrotation Yrotation Zrotation
			JOINT RightFoot
			{
				OFFSET -3.872656 -40.996872 0.047854
				CHANNELS 3 Xrotation Yrotation Zrotation
				JOINT RightToeBase
				{
					OFFSET 1.923487 -8.337814 12.513378
					CHANNELS 3 Xrotation Yrotation Zrotation
					End Site
					{
						OFFSET 0.915691 -0.157654 6.051507
					}
				}
			}
		}
	}
}
MOTION
Frames: 5
Frame Time: 0.033333
-0.000003 -0.000019 0.000000 0.000001 0.000000 0.000002 -0.844645 -0.399086 -1.848581 -1.718128 -0.774792 -3.169094 -1.720848 -0.767957 -3.169239 1.766620 1.168188 2.636686 7.352622 11.124208 -9.890901 0.014182 7.047914 1.929578 24.419661 -29.996453 -12.524526 16.873496 15.244603 -2.711873 -16.652305 16.521628 14.315621 -6.254194 9.965582 9.605881 -13.018139 2.485041 5.973641 1.203596 -1.394339 -1.902234 0.178340 -9.976832 -3.102163 -36.429647 19.765932 -48.924321 11.141322 -10.236262 1.529291 -8.204347 -15.714853 34.630903 4.945138 -21.245524 -11.308853 -27.179636 1.500489 0.749161 1.629080 1.690188 2.323769 -17.091886 23.973822 3.572449 17.007676 -1.735349 3.771518 31.574998 -1.114085 -10.282758 -33.087048 0.391810 -1.362638 -10.138111 -4.094866 -8.812218 16.917252 -12.471477 -9.361312 -12.886055 -1.009457 9.000203 -1.421661 0.012879 0.075350 
0.132629 0.146978 -0.371177 -0.675059 -1.847536 1.536524 -0.125404 -0.247632 -2.330105 -0.276549 -0.510787 -4.999619 -0.277462 -0.509527 -5.000123 0.840122 1.341440 2.704202 1.859895 11.967168 -8.219728 0.026373 6.724635 2.297126 27.378888 -28.429257 -7.807685 14.459630 13.190923 -2.114737 -16.318895 16.591542 14.682361 -6.254196 9.965582 9.605882 -13.018133 2.485041 5.973640 1.203591 -1.394338 -1.902230 -0.051292 -6.543792 -6.921172 -7.270270 6.343040 -63.132203 6.411951 -5.905336 0.872285 -2.062794 -5.583695 46.384798 4.945144 -21.245522 -11.308853 -27.179643 1.500497 0.749158 1.629085 1.690193 2.323773 -16.167034 25.172290 2.681413 16.822648 0.306443 2.630580 34.363641 -0.785942 -8.218382 -35.149243 0.434317 -1.663100 -10.716598 -3.300207 -9.912998 17.295554 -12.207500 -10.138115 -12.417709 -0.981164 9.344421 -2.097895 0.010004 0.080275 
0.079003 0.435736 -0.675603 -0.751167 -4.691320 2.473465 0.359908 0.067255 -2.951843 0.710698 0.062022 -6.665212 0.710710 0.062285 -6.665139 -0.586746 1.523539 2.468182 -3.093995 11.942541 -5.016276 0.030867 6.494996 2.622398 29.233237 -25.219731 -3.964943 11.278251 10.391743 -1.458203 -14.785937 16.081431 15.210032 -6.254192 9.965580 9.605876 -13.018133 2.485039 5.973639 1.203591 -1.394337 -1.902228 0.046562 -1.141796 -13.064729 21.116189 -11.961738 -60.752811 -2.292051 2.267275 0.565570 1.480961 2.188108 42.522476 4.945141 -21.245525 -11.308852 -27.179640 1.500494 0.749160 1.629080 1.690193 2.323769 -16.193955 25.631285 2.459238 17.013719 4.201311 1.750509 36.659357 -0.097298 -5.202200 -37.026152 0.470056 -1.838637 -11.737554 -2.167028 -10.021235 16.851637 -12.650601 -10.575371 -11.377007 -0.869996 9.213857 -2.553546 -0.008243 0.064192 
-0.098878 0.862206 -0.933348 -0.383458 -7.754928 2.180611 0.675816 0.659999 -3.649113 1.387551 1.213878 -7.742542 1.390632 1.212773 -7.742533 -2.384498 1.505906 2.328715 -7.027308 10.654984 -0.492034 0.027187 6.540880 2.620691 29.528001 -23.611856 -0.360061 8.065157 7.480767 -0.955391 -12.260710 16.695472 14.620167 -6.254198 9.965586 9.605883 -13.018133 2.485041 5.973643 1.203588 -1.394338 -1.902237 0.622012 3.650167 -18.791633 41.430794 -17.401022 -48.161976 -6.202693 5.931516 0.807844 5.555908 6.276644 26.051158 4.945140 -21.245524 -11.308859 -27.179638 1.500497 0.749164 1.629084 1.690192 2.323770 -17.255600 25.483408 3.303757 17.381795 7.674856 1.817618 38.079493 0.743127 -2.370280 -38.365968 0.503355 -1.963860 -12.489722 -2.068269 -8.957167 14.802304 -12.429683 -10.276844 -9.534445 -0.688788 8.189176 -3.004128 -0.008331 0.075562 
-0.273771 1.364677 -1.014624 0.148457 -9.828039 0.774807 0.832937 1.400690 -4.378502 1.751662 2.739724 -8.236673 1.764217 2.735117 -8.236140 -4.078492 1.214925 2.377810 -9.330580 8.242614 4.339212 0.012666 6.936633 2.134572 30.401913 -25.182689 4.651192 4.907540 4.562551 -0.626780 -9.778030 18.709743 11.864664 -6.254197 9.965581 9.605882 -13.018134 2.485044 5.973633 1.203586 -1.394342 -1.902232 0.995490 5.551993 -21.444347 51.982890 -12.959740 -36.084651 -2.147249 2.152631 0.498947 8.421119 5.805744 4.593928 4.945142 -21.245527 -11.308853 -27.179636 1.500498 0.749163 1.629085 1.690192 2.323773 -18.754753 24.659438 4.844474 17.530119 9.081207 2.704303 39.052716 1.376605 -0.762679 -39.413958 0.551180 -2.175150 -13.391958 -3.487417 -7.488445 13.640274 -10.518617 -9.186211 -6.962972 -0.541886 6.806103 -5.051938 -0.048168 0.061735 
